<?xml version='1.0' encoding='utf-8'?>
<svg xmlns="http://www.w3.org/2000/svg" width="1920" height="1080" viewBox="0 0 1920 1080" data-theme="light">
  <style>
        @font-face {
            font-family: 'Inter';
            src: url('assets/fonts/Inter-Regular.ttf') format('truetype');
            font-weight: 400;
            font-style: normal;
            font-display: swap;
        }
        @font-face {
            font-family: 'Inter';
            src: url('assets/fonts/Inter-Bold.ttf') format('truetype');
            font-weight: 600;
            font-style: normal;
            font-display: swap;
        }
        @font-face {
            font-family: 'Inter';
            src: url('assets/fonts/Inter-Bold.ttf') format('truetype');
            font-weight: 800;
            font-style: normal;
            font-display: swap;
        }
        
:root {
    --background: #f8fafc;
    --panel: #ffffff;
    --primary-text: #0f172a;
    --muted-text: #64748b;
    --inverse-text: #ffffff;
    --border: #e2e8f0;
    --shadow-color: #000000;
    --icon-pad-bg: #1e293b;
    --art-glow: #0891b2;
    --art-glow-opacity: 0.10;
    --art-sheen: #ffffff;
    --art-sheen-opacity: 0.34;
    --art-shadow: #0f172a;
    --art-shadow-opacity: 0.14;
    --art-muted-line: #94a3b8;
    --art-panel-tint: #f1f5f9;
    --font-family: 'Inter', 'Segoe UI', 'Kalam', Roboto, Helvetica, Arial, sans-serif;
    --radius-xl: 16px;
    --font-family-headline: 'Inter', 'Segoe UI', 'Kalam', Roboto, Helvetica, Arial, sans-serif;
    --font-family-body: 'Inter', 'Segoe UI', 'Kalam', Roboto, Helvetica, Arial, sans-serif;
    --font-heading: 'Inter', 'Segoe UI', 'Kalam', Roboto, Helvetica, Arial, sans-serif;
    --font-body: 'Inter', 'Segoe UI', 'Kalam', Roboto, Helvetica, Arial, sans-serif;
    --font-size-h1: 56px;
    --font-size-h2: 40px;
    --font-size-h3: 28px;
    --font-size-body: 24px;
    --font-size-caption: 18px;
    --secondary-text: var(--muted-text);
    --panel-border: var(--border);
    --font-weight-normal: 400;
    --font-weight-medium: 500;
    --font-weight-semibold: 600;
    --font-weight-bold: 700;
    --spacing-gutter-pct: 0.07;
    --spacing-top-pct: 0.15;
    --spacing-bottom-pct: 0.07;
    --spacing-title-y-pct: 0.055;
    --accent-1: #0891b2;
    --accent-2: #db2777;
    --accent-3: #ca8a04;
    --accent-4: #65a30d;
    --accent-5: #ea580c;
    --accent-6: #9333ea;
}
:root[data-theme="dark"] {
    --background: #0f172a;
    --panel: #1e293b;
    --primary-text: #f1f5f9;
    --muted-text: #94a3b8;
    --inverse-text: #0f172a;
    --border: #334155;
    --shadow-color: #000000;
    --icon-pad-bg: #1e293b;
    --art-glow: #7dd3fc;
    --art-glow-opacity: 0.18;
    --art-sheen: #ffffff;
    --art-sheen-opacity: 0.18;
    --art-shadow: #000000;
    --art-shadow-opacity: 0.28;
    --art-muted-line: #64748b;
    --art-panel-tint: #1e293b;
    --accent-1: #22d3ee;
    --accent-2: #f472b6;
    --accent-3: #facc15;
    --accent-4: #a3e635;
    --accent-5: #fb923c;
    --accent-6: #c084fc;
}
:root[data-theme="light"] {
    --background: #f8fafc;
    --panel: #ffffff;
    --primary-text: #0f172a;
    --muted-text: #64748b;
    --inverse-text: #ffffff;
    --border: #e2e8f0;
    --shadow-color: #000000;
    --icon-pad-bg: #1e293b;
    --art-glow: #0891b2;
    --art-glow-opacity: 0.10;
    --art-sheen: #ffffff;
    --art-sheen-opacity: 0.34;
    --art-shadow: #0f172a;
    --art-shadow-opacity: 0.14;
    --art-muted-line: #94a3b8;
    --art-panel-tint: #f1f5f9;
    --accent-1: #0891b2;
    --accent-2: #db2777;
    --accent-3: #ca8a04;
    --accent-4: #65a30d;
    --accent-5: #ea580c;
    --accent-6: #9333ea;
}</style>
  <rect x="0" y="0" width="1.92E+3" height="1.08E+3" fill="#252a34" stroke="none" id="programmatic_background"/>
  <line id="HEADER_DECOR" x1="960.0" x2="1080.0" y1="135.0" y2="135.0" stroke="var(--accent-1)" stroke-width="6" stroke-linecap="round"/>
  <defs>
    <pattern id="svg5c770eb6-napkin-hatch" patternUnits="userSpaceOnUse" width="12" height="12">
      <path d="M -3 12 L 12 -3 M 0 15 L 15 0" fill="none" stroke="var(--primary-text)" stroke-width="1" stroke-opacity="0.05"/>
    </pattern>
    <filter id="svg5c770eb6-shadow" x="-30%" y="-30%" width="160%" height="160%">
      <feDropShadow dx="0" dy="2" stdDeviation="3" flood-color="#000000" flood-opacity="0.08"/>
      <feDropShadow dx="0" dy="6" stdDeviation="10" flood-color="#000000" flood-opacity="0.12"/>
    </filter>
    <radialGradient id="svg5c770eb6-universal-edge-vignette" cx="50%" cy="50%" r="72%">
      <stop offset="0%" stop-color="var(--background)" stop-opacity="0"/>
      <stop offset="72%" stop-color="var(--background)" stop-opacity="0.12"/>
      <stop offset="100%" stop-color="var(--primary-text)" stop-opacity="0.08"/>
    </radialGradient>
    <linearGradient id="svg5c770eb6-universal-surface-sheen" x1="0%" y1="0%" x2="100%" y2="100%">
      <stop offset="0%" stop-color="var(--art-sheen)" stop-opacity="var(--art-sheen-opacity)"/>
      <stop offset="46%" stop-color="var(--art-sheen)" stop-opacity="0.035"/>
      <stop offset="100%" stop-color="var(--art-panel-tint)" stop-opacity="0.14"/>
    </linearGradient>
    <radialGradient id="svg5c770eb6-universal-icon-aura" cx="50%" cy="42%" r="64%">
      <stop offset="0%" stop-color="var(--art-glow)" stop-opacity="var(--art-glow-opacity)"/>
      <stop offset="100%" stop-color="var(--background)" stop-opacity="0"/>
    </radialGradient>
    <filter id="svg5c770eb6-text-glow" x="-20%" y="-20%" width="140%" height="140%">
      <feDropShadow dx="0" dy="0" stdDeviation="2" flood-color="#000000" flood-opacity="0.4"/>
    </filter>
    <marker id="svg5c770eb6-arrowhead" markerWidth="10" markerHeight="7" refX="9" refY="3.5" orient="auto" markerUnits="strokeWidth">
      <polygon points="0 0, 10 3.5, 0 7" fill="var(--muted-text)" opacity="0.6"/>
    </marker>
  </defs>
  <rect width="100%" height="100%" fill="var(--background)" id="CANVAS_BG"/>
  <rect width="100%" height="100%" fill="url(#svg5c770eb6-napkin-hatch)"/>
  <rect id="UNIVERSAL_EDGE_VIGNETTE" width="100%" height="100%" fill="url(#svg5c770eb6-universal-edge-vignette)" opacity="0.62"/>
  <text id="TITLE" x="960.0" y="59" text-anchor="middle" font-weight="800" font-size="56" fill="#0f172a" style="font-size: 60px; font-family: Inter, Segoe UI, Kalam, Roboto, Helvetica, Arial, sans-serif; font-weight: 700; letter-spacing:-1.2px;" data-final-font-size="60">
    <tspan x="960.0" dy="68.00px">RG 615 Record Group</tspan>
  </text>
  <rect id="TITLE_FRAME" x="134" y="28" width="1652" height="88" fill="none"/>
  <g transform="translate(960, 590)">
    <circle r="178" fill="var(--panel)" fill-opacity="0.72" stroke="var(--muted-text)" stroke-width="3" stroke-dasharray="12 6" opacity="0.75"/>
    <circle id="CENTER_PAD" r="116" fill="var(--icon-pad-bg)" stroke="none" opacity="0.96"/>
    <g id="CENTER_ICON" transform="translate(-70, -70)" data-icon-size="140" stroke-dasharray="8 5">
      <g transform="translate(-33.40571428571429,-33.4057142857143) scale(6.4628571428571435)">
        <path d="M18.6992 4.62713L20.9469 8.93616C21.288 9.57602 21.9102 10.0259 22.6326 10.1259L27.3788 10.7758C29.9175 11.1257 30.9008 14.255 29.0244 15.9946L25.7733 18.9939C25.2114 19.5138 24.9505 20.2836 25.091 21.0334L25.8837 25.4324C26.3252 27.8819 23.7765 29.7915 21.5389 28.6717L17.0034 26.4222C16.3713 26.1123 15.6287 26.1123 14.9966 26.4222L10.4611 28.6717C8.22347 29.7815 5.67477 27.8819 6.11628 25.4324L6.90898 21.0334C7.04946 20.2836 6.78857 19.5138 6.22665 18.9939L2.97556 15.9946C1.09916 14.265 2.08251 11.1257 4.62118 10.7758L9.36737 10.1259C10.0898 10.0259 10.722 9.58601 11.0531 8.93616L13.3008 4.62713C14.4447 2.45762 17.5653 2.45762 18.6992 4.62713Z" fill="#FCD53F"/>
      </g>
    </g>
    <circle r="90" fill="none" stroke="var(--primary-text)" stroke-width="3" stroke-dasharray="8 5" opacity="0.8"/>
    <text id="CENTER_LABEL" x="0" y="12" text-anchor="middle" font-weight="800" font-size="34" fill="var(--primary-text)" display="none">SUBJECT</text>
  </g>
  <g transform="translate(400, 420)">
    <line x1="62" y1="32" x2="360" y2="150" stroke="var(--accent-1)" stroke-width="4.5" stroke-dasharray="6 6" opacity="0.75"/>
    <circle cx="360" cy="150" r="7" fill="var(--accent-1)"/>
    <circle id="ITEM_1_PAD" r="56" fill="var(--icon-pad-bg)" stroke="var(--primary-text)" opacity="0.95" fill-opacity="0.9" stroke-width="2"/>
    <circle id="ITEM_1_PAD_INNER" cx="0" cy="0" r="43.68" fill="var(--accent-3)" fill-opacity="0.22"/>
    <circle id="ITEM_1_NODE" r="46" fill="none" stroke="var(--accent-1)" stroke-width="3" stroke-dasharray="6 4" filter="url(#svg5c770eb6-shadow)"/>
    <rect id="ITEM_1_TEXT_BG" x="-382" y="-78" width="302" height="172" rx="24" fill="var(--panel)" fill-opacity="0.96" filter="url(#svg5c770eb6-shadow)" stroke="none"/>
    <text id="ITEM_1_HEAD" x="-110.0" y="-48.0" text-anchor="end" font-weight="bold" font-size="30" fill="var(--primary-text)" data-bg-id="ITEM_1_TEXT_BG" fill-opacity="1.0" style="font-size: 28px; font-family: Inter, Segoe UI, Kalam, Roboto, Helvetica, Arial, sans-serif; font-weight: 700; letter-spacing:-0.4px;" data-final-font-size="28">
      <tspan x="-110.0" dy="28.30px">Agency Transfer</tspan>
    </text>
    <rect id="ITEM_1_HEAD_FRAME" x="-318" y="-48" width="208" height="44" fill="none"/>
    <text id="ITEM_1_BODY" x="-110.0" y="-2.0" text-anchor="end" font-size="20" fill="var(--primary-text)" data-bg-id="ITEM_1_TEXT_BG" style="font-size: 26px; font-family: Inter, Segoe UI, Kalam, Roboto, Helvetica, Arial, sans-serif; font-weight: 400;" data-final-font-size="26">
      <tspan x="-110.0" dy="23.66px">Federal agencies</tspan>
      <tspan x="-110.0" dy="29.90px">send digital copies</tspan>
      <tspan x="-110.0" dy="29.90px">to NARA</tspan>
    </text>
    <rect id="ITEM_1_BODY_FRAME" x="-352" y="-2" width="242" height="104" fill="none"/>
    <g id="ITEM_1_ICON" transform="translate(-33, -33)" data-icon-size="66" stroke-dasharray="6 4">
      <g transform="translate(-15.198620689655172,-15.198620689655172) scale(4.016551724137931)" vector-effect="non-scaling-stroke" stroke-width="2.50" stroke-linecap="round" stroke-linejoin="round" stroke-opacity="1.0">
        <path d="M3 10C3 6.22876 3 4.34315 4.17157 3.17157C5.34315 2 7.22876 2 11 2H13C16.7712 2 18.6569 2 19.8284 3.17157C21 4.34315 21 6.22876 21 10V14C21 17.7712 21 19.6569 19.8284 20.8284C18.6569 22 16.7712 22 13 22H11C7.22876 22 5.34315 22 4.17157 20.8284C3 19.6569 3 17.7712 3 14V10Z" stroke="#f1f5f9" vector-effect="non-scaling-stroke" fill="none"/>
        <path d="M9.5 15.5V15.375C9.5 14.8918 9.89175 14.5 10.375 14.5H13.625C14.1082 14.5 14.5 14.8918 14.5 15.375V15.5C14.5 16.8807 13.3807 18 12 18C10.6193 18 9.5 16.8807 9.5 15.5Z" stroke="#f1f5f9" vector-effect="non-scaling-stroke" fill="none"/>
        <path d="M9.5 3C9.5 2.5286 9.5 2.29289 9.64645 2.14645C9.79289 2 10.0286 2 10.5 2H11C11.4714 2 11.7071 2 11.8536 2.14645C12 2.29289 12 2.5286 12 3V3.5C12 3.9714 12 4.20711 11.8536 4.35355C11.7071 4.5 11.4714 4.5 11 4.5H10.5C10.0286 4.5 9.79289 4.5 9.64645 4.35355C9.5 4.20711 9.5 3.9714 9.5 3.5V3Z" stroke="#f1f5f9" vector-effect="non-scaling-stroke" fill="none"/>
        <path d="M9.5 8C9.5 7.5286 9.5 7.29289 9.64645 7.14645C9.79289 7 10.0286 7 10.5 7H11C11.4714 7 11.7071 7 11.8536 7.14645C12 7.29289 12 7.5286 12 8V8.5C12 8.9714 12 9.20711 11.8536 9.35355C11.7071 9.5 11.4714 9.5 11 9.5H10.5C10.0286 9.5 9.79289 9.5 9.64645 9.35355C9.5 9.20711 9.5 8.9714 9.5 8.5V8Z" stroke="#f1f5f9" vector-effect="non-scaling-stroke" fill="none"/>
        <path d="M12 5.5C12 5.0286 12 4.79289 12.1464 4.64645C12.2929 4.5 12.5286 4.5 13 4.5H13.5C13.9714 4.5 14.2071 4.5 14.3536 4.64645C14.5 4.79289 14.5 5.0286 14.5 5.5V6C14.5 6.4714 14.5 6.70711 14.3536 6.85355C14.2071 7 13.9714 7 13.5 7H13C12.5286 7 12.2929 7 12.1464 6.85355C12 6.70711 12 6.4714 12 6V5.5Z" stroke="#f1f5f9" vector-effect="non-scaling-stroke" fill="none"/>
        <path d="M12 10.5C12 10.0286 12 9.79289 12.1464 9.64645C12.2929 9.5 12.5286 9.5 13 9.5H13.5C13.9714 9.5 14.2071 9.5 14.3536 9.64645C14.5 9.79289 14.5 10.0286 14.5 10.5V11C14.5 11.4714 14.5 11.7071 14.3536 11.8536C14.2071 12 13.9714 12 13.5 12H13C12.5286 12 12.2929 12 12.1464 11.8536C12 11.7071 12 11.4714 12 11V10.5Z" stroke="#f1f5f9" vector-effect="non-scaling-stroke" fill="none"/>
      </g>
    </g>
  </g>
  <g transform="translate(960, 348)">
    <line x1="0" y1="76" x2="0" y2="208" stroke="var(--accent-2)" stroke-width="4.5" stroke-dasharray="6 6" opacity="0.75"/>
    <circle cx="0" cy="208" r="7" fill="var(--accent-2)"/>
    <circle id="ITEM_2_PAD" r="56" fill="var(--icon-pad-bg)" stroke="var(--primary-text)" opacity="0.95" fill-opacity="0.9" stroke-width="2"/>
    <circle id="ITEM_2_PAD_INNER" cx="0" cy="0" r="43.68" fill="var(--accent-4)" fill-opacity="0.22"/>
    <circle id="ITEM_2_NODE" r="46" fill="none" stroke="var(--accent-2)" stroke-width="3" stroke-dasharray="6 4" filter="url(#svg5c770eb6-shadow)"/>
    <rect id="ITEM_2_TEXT_BG" x="-210" y="-178" width="420" height="124" rx="24" fill="var(--panel)" fill-opacity="0.96" filter="url(#svg5c770eb6-shadow)" stroke="none"/>
    <text id="ITEM_2_HEAD" x="0.0" y="-154.0" text-anchor="middle" font-weight="bold" font-size="30" fill="var(--primary-text)" data-bg-id="ITEM_2_TEXT_BG" fill-opacity="1.0" style="font-size: 30px; font-family: Inter, Segoe UI, Kalam, Roboto, Helvetica, Arial, sans-serif; font-weight: 700; letter-spacing:-0.4px;" data-final-font-size="30">
      <tspan x="0.0" dy="28.25px">Contributor List</tspan>
    </text>
    <rect id="ITEM_2_HEAD_FRAME" x="-150" y="-154" width="300" height="40" fill="none"/>
    <text id="ITEM_2_BODY" x="0.0" y="-112.0" text-anchor="middle" font-size="20" fill="var(--primary-text)" data-bg-id="ITEM_2_TEXT_BG" style="font-size: 26px; font-family: Inter, Segoe UI, Kalam, Roboto, Helvetica, Arial, sans-serif; font-weight: 400;" data-final-font-size="26">
      <tspan x="0.0" dy="22.44px">FAA, NSA, FBI and DoD feed</tspan>
      <tspan x="0.0" dy="29.90px">the collection</tspan>
    </text>
    <rect id="ITEM_2_BODY_FRAME" x="-184" y="-112" width="368" height="68" fill="none"/>
    <g id="ITEM_2_ICON" transform="translate(-33, -33)" data-icon-size="66" stroke-dasharray="6 4">
      <g transform="translate(-14.381694915254236,-14.381694915254236) scale(3.9484745762711864)" vector-effect="non-scaling-stroke" stroke-width="2.50" stroke-linecap="round" stroke-linejoin="round" stroke-opacity="1.0">
        <path d="M3.85 8.62a4 4 0 0 1 4.78-4.77 4 4 0 0 1 6.74 0 4 4 0 0 1 4.78 4.78 4 4 0 0 1 0 6.74 4 4 0 0 1-4.77 4.78 4 4 0 0 1-6.75 0 4 4 0 0 1-4.78-4.77 4 4 0 0 1 0-6.76Z" vector-effect="non-scaling-stroke" fill="none" stroke="#f1f5f9"/>
      </g>
    </g>
  </g>
  <g transform="translate(1520, 420)">
    <line x1="-62" y1="32" x2="-360" y2="150" stroke="var(--accent-3)" stroke-width="4.5" stroke-dasharray="6 6" opacity="0.75"/>
    <circle cx="-360" cy="150" r="7" fill="var(--accent-3)"/>
    <circle id="ITEM_3_PAD" r="56" fill="var(--icon-pad-bg)" stroke="var(--primary-text)" opacity="0.95" fill-opacity="0.9" stroke-width="2"/>
    <circle id="ITEM_3_PAD_INNER" cx="0" cy="0" r="43.68" fill="var(--accent-5)" fill-opacity="0.22"/>
    <circle id="ITEM_3_NODE" r="46" fill="none" stroke="var(--accent-3)" stroke-width="3" stroke-dasharray="6 4" filter="url(#svg5c770eb6-shadow)"/>
    <rect id="ITEM_3_TEXT_BG" x="80" y="-78" width="302" height="172" rx="24" fill="var(--panel)" fill-opacity="0.96" filter="url(#svg5c770eb6-shadow)" stroke="none"/>
    <text id="ITEM_3_HEAD" x="110.0" y="-48.0" text-anchor="start" font-weight="bold" font-size="30" fill="var(--primary-text)" data-bg-id="ITEM_3_TEXT_BG" fill-opacity="1.0" style="font-size: 28px; font-family: Inter, Segoe UI, Kalam, Roboto, Helvetica, Arial, sans-serif; font-weight: 700; letter-spacing:-0.4px;" data-final-font-size="28">
      <tspan x="110.0" dy="28.30px">Catalogue Entry</tspan>
    </text>
    <rect id="ITEM_3_HEAD_FRAME" x="110" y="-48" width="208" height="44" fill="none"/>
    <text id="ITEM_3_BODY" x="110.0" y="-2.0" text-anchor="start" font-size="20" fill="var(--primary-text)" data-bg-id="ITEM_3_TEXT_BG" style="font-size: 26px; font-family: Inter, Segoe UI, Kalam, Roboto, Helvetica, Arial, sans-serif; font-weight: 400;" data-final-font-size="26">
      <tspan x="110.0" dy="23.66px">Entry shows</tspan>
      <tspan x="110.0" dy="29.90px">creator, date and</tspan>
      <tspan x="110.0" dy="29.90px">access rules</tspan>
    </text>
    <rect id="ITEM_3_BODY_FRAME" x="110" y="-2" width="242" height="104" fill="none"/>
    <g id="ITEM_3_ICON" transform="translate(-33, -33)" data-icon-size="66" stroke-dasharray="6 4">
      <g transform="translate(-16.92,-16.92) scale(3.12)" vector-effect="non-scaling-stroke" fill="#f1f5f9" fill-opacity="1.0" stroke="none">
        <path fill="#f1f5f9" d="M8 19H6v-2a3.003 3.003 0 0 1 3-3h5v2H9a1 1 0 0 0-1 1zm4-6a4 4 0 1 1 4-4a4.005 4.005 0 0 1-4 4m0-6a2 2 0 1 0 2 2a2 2 0 0 0-2-2m8 13a4 4 0 1 1 4-4a4.005 4.005 0 0 1-4 4m0-6a2 2 0 1 0 2 2a2 2 0 0 0-2-2m6 12h-2v-2a1 1 0 0 0-1-1h-6a1 1 0 0 0-1 1v2h-2v-2a3.003 3.003 0 0 1 3-3h6a3.003 3.003 0 0 1 3 3z" vector-effect="non-scaling-stroke" stroke="none"/>
        <path fill="#f1f5f9" d="M8 30H4a2 2 0 0 1-2-2V4a2 2 0 0 1 2-2h4v2H4v24h4zm20 0h-4v-2h4V4h-4V2h4a2 2 0 0 1 2 2v24a2 2 0 0 1-2 2" vector-effect="non-scaling-stroke" stroke="none"/>
      </g>
    </g>
  </g>
  <g transform="translate(430, 770)">
    <line x1="62" y1="-32" x2="360" y2="-150" stroke="var(--accent-4)" stroke-width="4.5" stroke-dasharray="6 6" opacity="0.75"/>
    <circle cx="360" cy="-150" r="7" fill="var(--accent-4)"/>
    <circle id="ITEM_4_PAD" r="56" fill="var(--icon-pad-bg)" stroke="var(--primary-text)" opacity="0.95" fill-opacity="0.9" stroke-width="2"/>
    <circle id="ITEM_4_PAD_INNER" cx="0" cy="0" r="43.68" fill="var(--accent-6)" fill-opacity="0.22"/>
    <circle id="ITEM_4_NODE" r="46" fill="none" stroke="var(--accent-4)" stroke-width="3" stroke-dasharray="6 4" filter="url(#svg5c770eb6-shadow)"/>
    <rect id="ITEM_4_TEXT_BG" x="-382" y="-78" width="302" height="172" rx="24" fill="var(--panel)" fill-opacity="0.96" filter="url(#svg5c770eb6-shadow)" stroke="none"/>
    <text id="ITEM_4_HEAD" x="-110.0" y="-48.0" text-anchor="end" font-weight="bold" font-size="30" fill="var(--accent-6)" data-bg-id="ITEM_4_TEXT_BG" fill-opacity="1.0" style="font-size: 30px; font-family: Inter, Segoe UI, Kalam, Roboto, Helvetica, Arial, sans-serif; font-weight: 700; letter-spacing:-0.4px;" data-final-font-size="30">
      <tspan x="-110.0" dy="30.25px">Bulk Download</tspan>
    </text>
    <rect id="ITEM_4_HEAD_FRAME" x="-318" y="-48" width="208" height="44" fill="none"/>
    <text id="ITEM_4_BODY" x="-110.0" y="-2.0" text-anchor="end" font-size="20" fill="var(--primary-text)" data-bg-id="ITEM_4_TEXT_BG" style="font-size: 26px; font-family: Inter, Segoe UI, Kalam, Roboto, Helvetica, Arial, sans-serif; font-weight: 400;" data-final-font-size="26">
      <tspan x="-110.0" dy="23.66px">Researchers grab</tspan>
      <tspan x="-110.0" dy="29.90px">image and video</tspan>
      <tspan x="-110.0" dy="29.90px">archives</tspan>
    </text>
    <rect id="ITEM_4_BODY_FRAME" x="-352" y="-2" width="242" height="104" fill="none"/>
    <g id="ITEM_4_ICON" transform="translate(-33, -33)" data-icon-size="66" stroke-dasharray="6 4">
      <g transform="translate(-14.381694915254236,-12.160677966101694) scale(3.9484745762711864)" vector-effect="non-scaling-stroke" stroke-width="2.50" stroke-linecap="round" stroke-linejoin="round" stroke-opacity="1.0">
        <path d="M20 20a2 2 0 0 0 2-2V8a2 2 0 0 0-2-2h-7.9a2 2 0 0 1-1.69-.9L9.6 3.9A2 2 0 0 0 7.93 3H4a2 2 0 0 0-2 2v13a2 2 0 0 0 2 2Z" vector-effect="non-scaling-stroke" fill="none" stroke="#f1f5f9"/>
      </g>
    </g>
  </g>
  <g transform="translate(1490, 770)">
    <line x1="-62" y1="-32" x2="-360" y2="-150" stroke="var(--accent-5)" stroke-width="4.5" stroke-dasharray="6 6" opacity="0.75"/>
    <circle cx="-360" cy="-150" r="7" fill="var(--accent-5)"/>
    <circle id="ITEM_5_PAD" r="56" fill="var(--icon-pad-bg)" stroke="var(--primary-text)" opacity="0.95" fill-opacity="0.9" stroke-width="2"/>
    <circle id="ITEM_5_PAD_INNER" cx="0" cy="0" r="43.68" fill="var(--accent-1)" fill-opacity="0.22"/>
    <circle id="ITEM_5_NODE" r="46" fill="none" stroke="var(--accent-5)" stroke-width="3" stroke-dasharray="6 4" filter="url(#svg5c770eb6-shadow)"/>
    <rect id="ITEM_5_TEXT_BG" x="80" y="-78" width="302" height="172" rx="24" fill="var(--panel)" fill-opacity="0.96" filter="url(#svg5c770eb6-shadow)" stroke="none"/>
    <text id="ITEM_5_HEAD" x="110.0" y="-48.0" text-anchor="start" font-weight="bold" font-size="30" fill="var(--primary-text)" data-bg-id="ITEM_5_TEXT_BG" fill-opacity="1.0" style="font-size: 30px; font-family: Inter, Segoe UI, Kalam, Roboto, Helvetica, Arial, sans-serif; font-weight: 700; letter-spacing:-0.4px;" data-final-font-size="30">
      <tspan x="110.0" dy="30.25px">Redacted Copy</tspan>
    </text>
    <rect id="ITEM_5_HEAD_FRAME" x="110" y="-48" width="208" height="44" fill="none"/>
    <text id="ITEM_5_BODY" x="110.0" y="-2.0" text-anchor="start" font-size="20" fill="var(--primary-text)" data-bg-id="ITEM_5_TEXT_BG" style="font-size: 26px; font-family: Inter, Segoe UI, Kalam, Roboto, Helvetica, Arial, sans-serif; font-weight: 400;" data-final-font-size="26">
      <tspan x="110.0" dy="23.66px">Public version</tspan>
      <tspan x="110.0" dy="29.90px">hides names and</tspan>
      <tspan x="110.0" dy="29.90px">classified data</tspan>
    </text>
    <rect id="ITEM_5_BODY_FRAME" x="110" y="-2" width="242" height="104" fill="none"/>
    <g id="ITEM_5_ICON" transform="translate(-33, -33)" data-icon-size="66" stroke-dasharray="6 4">
      <g transform="translate(-25.240000000000002,-25.240000000000002) scale(4.8533333333333335)" vector-effect="non-scaling-stroke" stroke-width="2.50" stroke-linecap="round" stroke-linejoin="round" stroke-opacity="1.0">
        <path d="M12 12m-3 0a3 3 0 1 0 6 0a3 3 0 1 0 -6 0" vector-effect="non-scaling-stroke" fill="none" stroke="#f1f5f9"/>
        <path d="M4 4m0 2a2 2 0 0 1 2 -2h12a2 2 0 0 1 2 2v12a2 2 0 0 1 -2 2h-12a2 2 0 0 1 -2 -2z" vector-effect="non-scaling-stroke" fill="none" stroke="#f1f5f9"/>
      </g>
    </g>
  </g>
</svg>
