<?xml version='1.0' encoding='utf-8'?>
<svg xmlns="http://www.w3.org/2000/svg" width="1920" height="1080" viewBox="0 0 1920 1080" data-theme="light">
  <style>
        @font-face {
            font-family: 'Inter';
            src: url('assets/fonts/Inter-Regular.ttf') format('truetype');
            font-weight: 400;
            font-style: normal;
            font-display: swap;
        }
        @font-face {
            font-family: 'Inter';
            src: url('assets/fonts/Inter-Bold.ttf') format('truetype');
            font-weight: 600;
            font-style: normal;
            font-display: swap;
        }
        @font-face {
            font-family: 'Inter';
            src: url('assets/fonts/Inter-Bold.ttf') format('truetype');
            font-weight: 800;
            font-style: normal;
            font-display: swap;
        }
        
:root {
    --background: #f8fafc;
    --panel: #ffffff;
    --primary-text: #0f172a;
    --muted-text: #64748b;
    --inverse-text: #ffffff;
    --border: #e2e8f0;
    --shadow-color: #000000;
    --icon-pad-bg: #1e293b;
    --art-glow: #0891b2;
    --art-glow-opacity: 0.10;
    --art-sheen: #ffffff;
    --art-sheen-opacity: 0.34;
    --art-shadow: #0f172a;
    --art-shadow-opacity: 0.14;
    --art-muted-line: #94a3b8;
    --art-panel-tint: #f1f5f9;
    --font-family: 'Inter', 'Segoe UI', 'Kalam', Roboto, Helvetica, Arial, sans-serif;
    --radius-xl: 16px;
    --font-family-headline: 'Inter', 'Segoe UI', 'Kalam', Roboto, Helvetica, Arial, sans-serif;
    --font-family-body: 'Inter', 'Segoe UI', 'Kalam', Roboto, Helvetica, Arial, sans-serif;
    --font-heading: 'Inter', 'Segoe UI', 'Kalam', Roboto, Helvetica, Arial, sans-serif;
    --font-body: 'Inter', 'Segoe UI', 'Kalam', Roboto, Helvetica, Arial, sans-serif;
    --font-size-h1: 56px;
    --font-size-h2: 40px;
    --font-size-h3: 28px;
    --font-size-body: 24px;
    --font-size-caption: 18px;
    --secondary-text: var(--muted-text);
    --panel-border: var(--border);
    --font-weight-normal: 400;
    --font-weight-medium: 500;
    --font-weight-semibold: 600;
    --font-weight-bold: 700;
    --spacing-gutter-pct: 0.07;
    --spacing-top-pct: 0.15;
    --spacing-bottom-pct: 0.07;
    --spacing-title-y-pct: 0.055;
    --accent-1: #2563eb;
    --accent-2: #16a34a;
    --accent-3: #ea580c;
    --accent-4: #7c3aed;
    --accent-5: #0284c7;
    --accent-6: #475569;
}
:root[data-theme="dark"] {
    --background: #0f172a;
    --panel: #1e293b;
    --primary-text: #f1f5f9;
    --muted-text: #94a3b8;
    --inverse-text: #0f172a;
    --border: #334155;
    --shadow-color: #000000;
    --icon-pad-bg: #1e293b;
    --art-glow: #7dd3fc;
    --art-glow-opacity: 0.18;
    --art-sheen: #ffffff;
    --art-sheen-opacity: 0.18;
    --art-shadow: #000000;
    --art-shadow-opacity: 0.28;
    --art-muted-line: #64748b;
    --art-panel-tint: #1e293b;
    --accent-1: #60a5fa;
    --accent-2: #4ade80;
    --accent-3: #f97316;
    --accent-4: #a78bfa;
    --accent-5: #38bdf8;
    --accent-6: #94a3b8;
}
:root[data-theme="light"] {
    --background: #f8fafc;
    --panel: #ffffff;
    --primary-text: #0f172a;
    --muted-text: #64748b;
    --inverse-text: #ffffff;
    --border: #e2e8f0;
    --shadow-color: #000000;
    --icon-pad-bg: #1e293b;
    --art-glow: #0891b2;
    --art-glow-opacity: 0.10;
    --art-sheen: #ffffff;
    --art-sheen-opacity: 0.34;
    --art-shadow: #0f172a;
    --art-shadow-opacity: 0.14;
    --art-muted-line: #94a3b8;
    --art-panel-tint: #f1f5f9;
    --accent-1: #2563eb;
    --accent-2: #16a34a;
    --accent-3: #ea580c;
    --accent-4: #7c3aed;
    --accent-5: #0284c7;
    --accent-6: #475569;
}</style>
  <rect x="0" y="0" width="1.92E+3" height="1.08E+3" fill="#252a34" stroke="none" id="programmatic_background"/>
  <line id="HEADER_DECOR" x1="960.0" x2="1080.0" y1="135.0" y2="135.0" stroke="var(--accent-1)" stroke-width="6" stroke-linecap="round"/>
  <defs>
    <pattern id="svga281a7d3-napkin-hatch" patternUnits="userSpaceOnUse" width="12" height="12">
      <path d="M -3 12 L 12 -3 M 0 15 L 15 0" fill="none" stroke="var(--primary-text)" stroke-width="1" stroke-opacity="0.04"/>
    </pattern>
    <filter id="svga281a7d3-soft-shadow" x="-30%" y="-30%" width="160%" height="160%">
      <feDropShadow dx="0" dy="4" stdDeviation="8" flood-color="#000000" flood-opacity="0.18"/>
    </filter>
    <radialGradient id="svga281a7d3-universal-edge-vignette" cx="50%" cy="50%" r="72%">
      <stop offset="0%" stop-color="var(--background)" stop-opacity="0"/>
      <stop offset="72%" stop-color="var(--background)" stop-opacity="0.12"/>
      <stop offset="100%" stop-color="var(--primary-text)" stop-opacity="0.08"/>
    </radialGradient>
    <linearGradient id="svga281a7d3-universal-surface-sheen" x1="0%" y1="0%" x2="100%" y2="100%">
      <stop offset="0%" stop-color="var(--art-sheen)" stop-opacity="var(--art-sheen-opacity)"/>
      <stop offset="46%" stop-color="var(--art-sheen)" stop-opacity="0.035"/>
      <stop offset="100%" stop-color="var(--art-panel-tint)" stop-opacity="0.14"/>
    </linearGradient>
    <radialGradient id="svga281a7d3-universal-icon-aura" cx="50%" cy="42%" r="64%">
      <stop offset="0%" stop-color="var(--art-glow)" stop-opacity="var(--art-glow-opacity)"/>
      <stop offset="100%" stop-color="var(--background)" stop-opacity="0"/>
    </radialGradient>
    <linearGradient id="svga281a7d3-tug-rope-sheen" x1="0%" y1="0%" x2="100%" y2="0%">
      <stop offset="0%" stop-color="var(--background)" stop-opacity="0"/>
      <stop offset="50%" stop-color="var(--inverse-text)" stop-opacity="0.16"/>
      <stop offset="100%" stop-color="var(--background)" stop-opacity="0"/>
    </linearGradient>
    <filter id="svga281a7d3-text-glow" x="-20%" y="-20%" width="140%" height="140%">
      <feDropShadow dx="0" dy="0" stdDeviation="2" flood-color="#000000" flood-opacity="0.4"/>
    </filter>
    <filter id="svga281a7d3-shadow" x="-30%" y="-30%" width="160%" height="160%">
      <feDropShadow dx="0" dy="2" stdDeviation="3" flood-color="#000000" flood-opacity="0.08"/>
      <feDropShadow dx="0" dy="6" stdDeviation="10" flood-color="#000000" flood-opacity="0.12"/>
    </filter>
    <marker id="svga281a7d3-arrowhead" markerWidth="10" markerHeight="7" refX="9" refY="3.5" orient="auto" markerUnits="strokeWidth">
      <polygon points="0 0, 10 3.5, 0 7" fill="var(--muted-text)" opacity="0.6"/>
    </marker>
  </defs>
  <rect id="CANVAS_BG" width="100%" height="100%" fill="var(--background)"/>
  <rect width="100%" height="100%" fill="url(#svga281a7d3-napkin-hatch)"/>
  <rect id="UNIVERSAL_EDGE_VIGNETTE" width="100%" height="100%" fill="url(#svga281a7d3-universal-edge-vignette)" opacity="0.62"/>
  <text id="TITLE" x="960.0" y="59" text-anchor="middle" font-size="56" font-weight="800" fill="#0f172a" style="font-size: 60px; font-family: Inter, Segoe UI, Kalam, Roboto, Helvetica, Arial, sans-serif; font-weight: 700; letter-spacing:-1.2px;" data-final-font-size="60">
    <tspan x="960.0" dy="68.00px">NUFORC Data Analysis</tspan>
  </text>
  <rect id="TITLE_FRAME" x="134" y="59" width="1652" height="103" fill="none"/>
  <ellipse cx="960" cy="332" rx="214" ry="60" fill="var(--panel)" fill-opacity="0.50" opacity="0.34"/>
  <path d="M 182 320 Q 616 302 934 332" fill="none" stroke="var(--primary-text)" stroke-width="16" stroke-linecap="round" opacity="0.10"/>
  <path d="M 1738 320 Q 1304 302 986 332" fill="none" stroke="var(--primary-text)" stroke-width="16" stroke-linecap="round" opacity="0.10"/>
  <path d="M 220 320 Q 618 306 936 332" fill="none" stroke="var(--muted-text)" stroke-width="8" stroke-linecap="round" opacity="0.88"/>
  <path d="M 1700 320 Q 1302 306 984 332" fill="none" stroke="var(--muted-text)" stroke-width="8" stroke-linecap="round" opacity="0.88"/>
  <circle cx="960" cy="332" r="24" fill="var(--panel)" fill-opacity="0.94" stroke="var(--primary-text)" stroke-width="3"/>
  <path d="M 960 308 L 982 332 L 960 356 L 938 332 Z" fill="var(--primary-text)"/>
  <path d="M 960 356 L 960 666" fill="none" stroke="var(--primary-text)" stroke-width="12" stroke-linecap="round" opacity="0.10"/>
  <path d="M 960 356 L 960 666" fill="none" stroke="var(--muted-text)" stroke-width="6" stroke-linecap="round" opacity="0.78"/>
  <ellipse cx="960" cy="690" rx="106" ry="36" fill="var(--panel)" fill-opacity="0.46" opacity="0.3"/>
  <path d="M 542 690 Q 746 678 928 690" fill="none" stroke="var(--primary-text)" stroke-width="14" stroke-linecap="round" opacity="0.10"/>
  <path d="M 1378 690 Q 1174 678 992 690" fill="none" stroke="var(--primary-text)" stroke-width="14" stroke-linecap="round" opacity="0.10"/>
  <path d="M 564 690 Q 752 680 928 690" fill="none" stroke="var(--muted-text)" stroke-width="7" stroke-linecap="round" opacity="0.86"/>
  <path d="M 1356 690 Q 1168 680 992 690" fill="none" stroke="var(--muted-text)" stroke-width="7" stroke-linecap="round" opacity="0.86"/>
  <circle cx="960" cy="690" r="18" fill="var(--panel)" fill-opacity="0.94" stroke="var(--primary-text)" stroke-width="3"/>
  <path d="M 818 336 L 530 360" fill="none" stroke="var(--muted-text)" stroke-width="3" stroke-linecap="round" opacity="0.72"/>
  <circle cx="530" cy="360" r="6" fill="var(--accent-1)"/>
  <g transform="translate(410, 390)" filter="url(#svga281a7d3-soft-shadow)">
    <path d="M 62 0 L 96 -30 L 146 -30 Q 156 -30 162 -18 L 174 0 Z" fill="var(--panel)" fill-opacity="0.95" stroke="var(--accent-1)" stroke-width="3"/>
    <rect id="ITEM_1_BG" x="-228" y="0" width="456" height="348" rx="24" fill="var(--panel)" fill-opacity="0.96" stroke="var(--accent-1)" stroke-width="3"/>
    <rect x="-184" y="14" width="344" height="8" rx="4" fill="var(--accent-1)" fill-opacity="0.42"/>
    <path d="M 76 28 L 184 28 L 160 322 L 84 322 Z" fill="var(--accent-1)" fill-opacity="0.07"/>
    <circle cx="0" cy="80" r="61" fill="url(#svga281a7d3-universal-icon-aura)" opacity="0.82"/>
    <circle id="ITEM_1_PAD" cx="0" cy="80" r="44" fill="var(--icon-pad-bg)" stroke="var(--primary-text)" opacity="0.92" fill-opacity="0.9" stroke-width="2"/>
    <circle id="ITEM_1_PAD_INNER" cx="0" cy="80" r="34.32" fill="var(--accent-2)" fill-opacity="0.22"/>
    <circle cx="0" cy="80" r="34" fill="none" stroke="var(--accent-1)" stroke-width="2.5" stroke-dasharray="5 4" opacity="0.82"/>
    <g id="ITEM_1_ICON" transform="translate(-33, 46)" data-icon-size="66" stroke-dasharray="5 4">
      <g transform="translate(-7.6755555555555555,-7.675555555555553) scale(3.3896296296296295)" vector-effect="non-scaling-stroke" fill="#f1f5f9" fill-opacity="1.0" stroke="none">
        <path fill="#f1f5f9" d="M4 4h16a2 2 0 0 1 2 2v12a2 2 0 0 1-2 2H4a2 2 0 0 1-2-2V6a2 2 0 0 1 2-2m0 2v12h7V6zm16 12V6h-1.24c.24.54.19 1.07.19 1.13c-.07.67-.54 1.37-.71 1.62l-2.33 2.55l3.32-.02l.01 1.22l-5.2-.03l-.04-1s3.05-3.23 3.2-3.52c.14-.28.71-1.95-.7-1.95c-1.23.05-1.09 1.3-1.09 1.3l-1.54.01s.01-.66.38-1.31H13v12h2.58l-.01-.86l.97-.01s.91-.16.92-1.05c.04-1-.81-1-.96-1c-.13 0-1.07.05-1.07.87h-1.52s.04-2.06 2.59-2.06c2.6 0 2.46 2.02 2.46 2.02s.04 1.25-1.11 1.72l.52.37zM8.92 16h-1.5v-5.8l-1.8.56V9.53l3.14-1.12h.16z" vector-effect="non-scaling-stroke" stroke="none"/>
      </g>
    </g>
    <text id="ITEM_1_HEAD" x="0.0" y="138.0" text-anchor="middle" font-size="40" font-weight="800" fill="var(--primary-text)" data-bg-id="ITEM_1_BG" data-max-lines="3" data-min-font-size="14" fill-opacity="1.0" style="font-size: 30px; font-family: Inter, Segoe UI, Kalam, Roboto, Helvetica, Arial, sans-serif; font-weight: 700; letter-spacing:-0.4px;" data-final-font-size="30">
      <tspan x="0.0" dy="47.01px">Raw Totals</tspan>
    </text>
    <rect id="ITEM_1_HEAD_FRAME" x="-194" y="138" width="388" height="68" fill="none"/>
    <text id="ITEM_1_BODY" x="0.0" y="202.0" text-anchor="middle" font-size="24" fill="var(--primary-text)" data-bg-id="ITEM_1_BG" style="font-size: 26px; font-family: Inter, Segoe UI, Kalam, Roboto, Helvetica, Arial, sans-serif; font-weight: 400;" data-final-font-size="26">
      <tspan x="0.0" dy="42.13px">Large numbers often inflate</tspan>
      <tspan x="0.0" dy="29.90px">perceived UFO activity</tspan>
    </text>
    <rect id="ITEM_1_BODY_FRAME" x="-214" y="202" width="428" height="146" fill="none"/>
  </g>
  <path d="M 960 356 L 960 342" fill="none" stroke="var(--muted-text)" stroke-width="3" stroke-linecap="round" opacity="0.72"/>
  <circle cx="960" cy="342" r="6" fill="var(--accent-2)"/>
  <g transform="translate(960, 372)" filter="url(#svga281a7d3-soft-shadow)">
    <path d="M -46 0 L -16 -30 L 16 -30 L 46 0 Z" fill="var(--panel)" fill-opacity="0.95" stroke="var(--accent-2)" stroke-width="3"/>
    <rect id="ITEM_2_BG" x="-228" y="0" width="456" height="348" rx="24" fill="var(--panel)" fill-opacity="0.96" stroke="var(--accent-2)" stroke-width="3"/>
    <rect x="-160" y="14" width="320" height="8" rx="4" fill="var(--accent-2)" fill-opacity="0.42"/>
    <path d="M -70 28 L 70 28 L 104 320 L -104 320 Z" fill="var(--accent-2)" fill-opacity="0.05"/>
    <circle cx="0" cy="80" r="61" fill="url(#svga281a7d3-universal-icon-aura)" opacity="0.82"/>
    <circle id="ITEM_2_PAD" cx="0" cy="80" r="44" fill="var(--icon-pad-bg)" stroke="var(--primary-text)" opacity="0.92" fill-opacity="0.9" stroke-width="2"/>
    <circle id="ITEM_2_PAD_INNER" cx="0" cy="80" r="34.32" fill="var(--accent-3)" fill-opacity="0.22"/>
    <circle cx="0" cy="80" r="34" fill="none" stroke="var(--accent-2)" stroke-width="2.5" stroke-dasharray="5 4" opacity="0.82"/>
    <g id="ITEM_2_ICON" transform="translate(-33, 46)" data-icon-size="66" stroke-dasharray="5 4">
      <g transform="translate(-7.6755555555555555,-8.628888888888888) scale(3.3896296296296295)" vector-effect="non-scaling-stroke" fill="#f1f5f9" fill-opacity="1.0" stroke="none">
        <path fill="#f1f5f9" d="M20 12c-1.39 0-2.78-.47-4-1.33c-2.44 1.71-5.56 1.71-8 0C6.78 11.53 5.39 12 4 12H2v2h2c1.37 0 2.74-.35 4-1c2.5 1.3 5.5 1.3 8 0c1.26.65 2.62 1 4 1h2v-2" vector-effect="non-scaling-stroke" stroke="none"/>
      </g>
    </g>
    <text id="ITEM_2_HEAD" x="0.0" y="138.0" text-anchor="middle" font-size="40" font-weight="800" fill="var(--primary-text)" data-bg-id="ITEM_2_BG" data-max-lines="3" data-min-font-size="14" fill-opacity="1.0" style="font-size: 30px; font-family: Inter, Segoe UI, Kalam, Roboto, Helvetica, Arial, sans-serif; font-weight: 700; letter-spacing:-0.4px;" data-final-font-size="30">
      <tspan x="0.0" dy="47.01px">Wave Reduction</tspan>
    </text>
    <rect id="ITEM_2_HEAD_FRAME" x="-194" y="138" width="388" height="68" fill="none"/>
    <text id="ITEM_2_BODY" x="0.0" y="202.0" text-anchor="middle" font-size="24" fill="var(--primary-text)" data-bg-id="ITEM_2_BG" style="font-size: 26px; font-family: Inter, Segoe UI, Kalam, Roboto, Helvetica, Arial, sans-serif; font-weight: 400;" data-final-font-size="26">
      <tspan x="0.0" dy="42.13px">Event counting shrinks inflated</tspan>
      <tspan x="0.0" dy="29.90px">spikes from media waves</tspan>
    </text>
    <rect id="ITEM_2_BODY_FRAME" x="-214" y="202" width="428" height="146" fill="none"/>
  </g>
  <path d="M 1102 336 L 1390 360" fill="none" stroke="var(--muted-text)" stroke-width="3" stroke-linecap="round" opacity="0.72"/>
  <circle cx="1390" cy="360" r="6" fill="var(--accent-3)"/>
  <g transform="translate(1510, 390)" filter="url(#svga281a7d3-soft-shadow)">
    <path d="M -62 0 L -96 -30 L -146 -30 Q -156 -30 -162 -18 L -174 0 Z" fill="var(--panel)" fill-opacity="0.95" stroke="var(--accent-3)" stroke-width="3"/>
    <rect id="ITEM_3_BG" x="-228" y="0" width="456" height="348" rx="24" fill="var(--panel)" fill-opacity="0.96" stroke="var(--accent-3)" stroke-width="3"/>
    <rect x="-160" y="14" width="344" height="8" rx="4" fill="var(--accent-3)" fill-opacity="0.42"/>
    <path d="M -76 28 L -184 28 L -160 322 L -84 322 Z" fill="var(--accent-3)" fill-opacity="0.07"/>
    <circle cx="0" cy="80" r="61" fill="url(#svga281a7d3-universal-icon-aura)" opacity="0.82"/>
    <circle id="ITEM_3_PAD" cx="0" cy="80" r="44" fill="var(--icon-pad-bg)" stroke="var(--primary-text)" opacity="0.92" fill-opacity="0.9" stroke-width="2"/>
    <circle id="ITEM_3_PAD_INNER" cx="0" cy="80" r="34.32" fill="var(--accent-4)" fill-opacity="0.22"/>
    <circle cx="0" cy="80" r="34" fill="none" stroke="var(--accent-3)" stroke-width="2.5" stroke-dasharray="5 4" opacity="0.82"/>
    <g id="ITEM_3_ICON" transform="translate(-33, 46)" data-icon-size="66" stroke-dasharray="5 4">
      <g transform="translate(-4.228474576271184,-4.228474576271187) scale(3.102372881355932)" vector-effect="non-scaling-stroke" stroke-width="2.50" stroke-linecap="round" stroke-linejoin="round" stroke-opacity="1.0">
        <path d="M12 17v5" vector-effect="non-scaling-stroke" fill="none" stroke="#f1f5f9"/>
        <path d="M9 10.76a2 2 0 0 1-1.11 1.79l-1.78.9A2 2 0 0 0 5 15.24V16a1 1 0 0 0 1 1h12a1 1 0 0 0 1-1v-.76a2 2 0 0 0-1.11-1.79l-1.78-.9A2 2 0 0 1 15 10.76V7a1 1 0 0 1 1-1 2 2 0 0 0 0-4H8a2 2 0 0 0 0 4 1 1 0 0 1 1 1z" vector-effect="non-scaling-stroke" fill="none" stroke="#f1f5f9"/>
      </g>
    </g>
    <text id="ITEM_3_HEAD" x="0.0" y="138.0" text-anchor="middle" font-size="40" font-weight="800" fill="var(--accent-4)" data-bg-id="ITEM_3_BG" data-max-lines="3" data-min-font-size="14" fill-opacity="1.0" style="font-size: 30px; font-family: Inter, Segoe UI, Kalam, Roboto, Helvetica, Arial, sans-serif; font-weight: 700; letter-spacing:-0.4px;" data-final-font-size="30">
      <tspan x="0.0" dy="47.01px">Location Shift</tspan>
    </text>
    <rect id="ITEM_3_HEAD_FRAME" x="-194" y="138" width="388" height="68" fill="none"/>
    <text id="ITEM_3_BODY" x="0.0" y="202.0" text-anchor="middle" font-size="24" fill="var(--primary-text)" data-bg-id="ITEM_3_BG" style="font-size: 26px; font-family: Inter, Segoe UI, Kalam, Roboto, Helvetica, Arial, sans-serif; font-weight: 400;" data-final-font-size="26">
      <tspan x="0.0" dy="42.13px">Active areas lose weight</tspan>
      <tspan x="0.0" dy="29.90px">when duplicate records merge</tspan>
    </text>
    <rect id="ITEM_3_BODY_FRAME" x="-214" y="202" width="428" height="146" fill="none"/>
  </g>
  <path d="M 930 690 L 810 696" fill="none" stroke="var(--muted-text)" stroke-width="3" stroke-linecap="round" opacity="0.72"/>
  <circle cx="810" cy="696" r="6" fill="var(--accent-4)"/>
  <g transform="translate(690, 726)" filter="url(#svga281a7d3-soft-shadow)">
    <path d="M 62 0 L 96 -30 L 146 -30 Q 156 -30 162 -18 L 174 0 Z" fill="var(--panel)" fill-opacity="0.95" stroke="var(--accent-4)" stroke-width="3"/>
    <rect id="ITEM_4_BG" x="-228" y="0" width="456" height="348" rx="24" fill="var(--panel)" fill-opacity="0.96" stroke="var(--accent-4)" stroke-width="3"/>
    <rect x="-184" y="14" width="344" height="8" rx="4" fill="var(--accent-4)" fill-opacity="0.42"/>
    <path d="M 76 28 L 184 28 L 160 322 L 84 322 Z" fill="var(--accent-4)" fill-opacity="0.07"/>
    <circle cx="0" cy="80" r="61" fill="url(#svga281a7d3-universal-icon-aura)" opacity="0.82"/>
    <circle id="ITEM_4_PAD" cx="0" cy="80" r="44" fill="var(--icon-pad-bg)" stroke="var(--primary-text)" opacity="0.92" fill-opacity="0.9" stroke-width="2"/>
    <circle id="ITEM_4_PAD_INNER" cx="0" cy="80" r="34.32" fill="var(--accent-5)" fill-opacity="0.22"/>
    <circle cx="0" cy="80" r="34" fill="none" stroke="var(--accent-4)" stroke-width="2.5" stroke-dasharray="5 4" opacity="0.82"/>
    <g id="ITEM_4_ICON" transform="translate(-33, 46)" data-icon-size="66" stroke-dasharray="5 4">
      <g transform="translate(-12.760000000000002,-12.760000000000002) scale(3.8133333333333335)" vector-effect="non-scaling-stroke" stroke-width="2.50" stroke-linecap="round" stroke-linejoin="round" stroke-opacity="1.0">
        <path d="M4 18v-12a2 2 0 0 1 2 -2h12a2 2 0 0 1 2 2v12a2 2 0 0 1 -2 2h-12a2 2 0 0 1 -2 -2z" vector-effect="non-scaling-stroke" fill="none" stroke="#f1f5f9"/>
        <path d="M7 14l3 -3l2 2l3 -3l2 2" vector-effect="non-scaling-stroke" fill="none" stroke="#f1f5f9"/>
      </g>
    </g>
    <text id="ITEM_4_HEAD" x="0.0" y="138.0" text-anchor="middle" font-size="40" font-weight="800" fill="var(--primary-text)" data-bg-id="ITEM_4_BG" data-max-lines="3" data-min-font-size="14" fill-opacity="1.0" style="font-size: 30px; font-family: Inter, Segoe UI, Kalam, Roboto, Helvetica, Arial, sans-serif; font-weight: 700; letter-spacing:-0.4px;" data-final-font-size="30">
      <tspan x="0.0" dy="47.01px">Trend Smoothing</tspan>
    </text>
    <rect id="ITEM_4_HEAD_FRAME" x="-194" y="138" width="388" height="68" fill="none"/>
    <text id="ITEM_4_BODY" x="0.0" y="202.0" text-anchor="middle" font-size="24" fill="var(--primary-text)" data-bg-id="ITEM_4_BG" style="font-size: 26px; font-family: Inter, Segoe UI, Kalam, Roboto, Helvetica, Arial, sans-serif; font-weight: 400;" data-final-font-size="26">
      <tspan x="0.0" dy="42.13px">Historical growth patterns become</tspan>
      <tspan x="0.0" dy="29.90px">less dramatic after cleaning</tspan>
    </text>
    <rect id="ITEM_4_BODY_FRAME" x="-214" y="202" width="428" height="146" fill="none"/>
  </g>
  <path d="M 990 690 L 1110 696" fill="none" stroke="var(--muted-text)" stroke-width="3" stroke-linecap="round" opacity="0.72"/>
  <circle cx="1110" cy="696" r="6" fill="var(--accent-5)"/>
  <g transform="translate(1230, 726)" filter="url(#svga281a7d3-soft-shadow)">
    <path d="M -62 0 L -96 -30 L -146 -30 Q -156 -30 -162 -18 L -174 0 Z" fill="var(--panel)" fill-opacity="0.95" stroke="var(--accent-5)" stroke-width="3"/>
    <rect id="ITEM_5_BG" x="-228" y="0" width="456" height="348" rx="24" fill="var(--panel)" fill-opacity="0.96" stroke="var(--accent-5)" stroke-width="3"/>
    <rect x="-160" y="14" width="344" height="8" rx="4" fill="var(--accent-5)" fill-opacity="0.42"/>
    <path d="M -76 28 L -184 28 L -160 322 L -84 322 Z" fill="var(--accent-5)" fill-opacity="0.07"/>
    <circle cx="0" cy="80" r="61" fill="url(#svga281a7d3-universal-icon-aura)" opacity="0.82"/>
    <circle id="ITEM_5_PAD" cx="0" cy="80" r="44" fill="var(--icon-pad-bg)" stroke="var(--primary-text)" opacity="0.92" fill-opacity="0.9" stroke-width="2"/>
    <circle id="ITEM_5_PAD_INNER" cx="0" cy="80" r="34.32" fill="var(--accent-6)" fill-opacity="0.22"/>
    <circle cx="0" cy="80" r="34" fill="none" stroke="var(--accent-5)" stroke-width="2.5" stroke-dasharray="5 4" opacity="0.82"/>
    <g id="ITEM_5_ICON" transform="translate(-33, 46)" data-icon-size="66" stroke-dasharray="5 4">
      <g transform="translate(-4.870344827586207,-4.870344827586207) scale(3.1558620689655172)" vector-effect="non-scaling-stroke" stroke-width="2.50" stroke-linecap="round" stroke-linejoin="round" stroke-opacity="1.0">
        <path d="M12 22C17.5228 22 22 17.5228 22 12C22 6.47715 17.5228 2 12 2C6.47715 2 2 6.47715 2 12C2 17.5228 6.47715 22 12 22Z" stroke="#f1f5f9" vector-effect="non-scaling-stroke" fill="none"/>
        <path d="M17.1973 9C17.0976 8.82774 16.9896 8.66089 16.8739 8.5" stroke="#f1f5f9" vector-effect="non-scaling-stroke" fill="none"/>
        <path d="M17.811 13.5C17.2683 15.6084 15.6084 17.2683 13.5 17.811" stroke="#f1f5f9" vector-effect="non-scaling-stroke" fill="none"/>
      </g>
    </g>
    <text id="ITEM_5_HEAD" x="0.0" y="138.0" text-anchor="middle" font-size="40" font-weight="800" fill="var(--accent-6)" data-bg-id="ITEM_5_BG" data-max-lines="3" data-min-font-size="14" fill-opacity="1.0" style="font-size: 30px; font-family: Inter, Segoe UI, Kalam, Roboto, Helvetica, Arial, sans-serif; font-weight: 700; letter-spacing:-0.4px;" data-final-font-size="30">
      <tspan x="0.0" dy="47.01px">Realistic Picture</tspan>
    </text>
    <rect id="ITEM_5_HEAD_FRAME" x="-194" y="138" width="388" height="68" fill="none"/>
    <text id="ITEM_5_BODY" x="0.0" y="202.0" text-anchor="middle" font-size="24" fill="var(--primary-text)" data-bg-id="ITEM_5_BG" style="font-size: 26px; font-family: Inter, Segoe UI, Kalam, Roboto, Helvetica, Arial, sans-serif; font-weight: 400;" data-final-font-size="26">
      <tspan x="0.0" dy="42.13px">Researchers distinguish stored</tspan>
      <tspan x="0.0" dy="29.90px">records from distinct incidents</tspan>
    </text>
    <rect id="ITEM_5_BODY_FRAME" x="-214" y="202" width="428" height="146" fill="none"/>
  </g>
</svg>
